# File generated by ImageToStl.com - Free Image and 3D model conversion tools

mtllib ps1-style-workshop.mtl

# Low_Polly_01_0
o obj1
v 519.99998093 345.00000477 -499.99998929
v 519.99998093 330.76508045 -499.99998991
v 476.07369423 330.76508045 -499.99998991
v 476.07369423 345.00000477 -499.99998929
v -529.99997139 344.99998291 1.508E-05
v -529.99997139 344.99998204 19.99999601
v -519.99998093 344.99998204 19.99999601
v -519.99998093 344.99998291 1.508E-05
v -519.99998093 -2.186E-05 -0
v -519.99998093 54.00059422 2.36E-06
v -519.99998093 54.00061607 -500.00000201
v -519.99998093 0 -500.00000437
v -476.70712471 344.99998291 1.508E-05
v -476.70712471 345.00000477 -499.99998929
v -519.99998093 345.00000477 -499.99998929
v -270.53220272 344.99998291 1.508E-05
v -270.53220272 345.00000477 -499.99998929
v 272.41542339 344.99998204 19.99999601
v 476.07369423 344.99998204 19.99999601
v 476.07369423 344.99998291 1.508E-05
v 272.41542339 344.99998291 1.508E-05
v -476.70712471 330.76508045 -499.99998991
v -519.99998093 330.76508045 -499.99998991
v -226.95298195 344.99998291 1.508E-05
v -226.95298195 345.00000477 -499.99998929
v 232.76193142 344.99998204 19.99999601
v 232.76193142 344.99998291 1.508E-05
v -270.53220272 330.76508045 -499.99998991
v -22.23993391 344.99998291 1.508E-05
v -22.23993391 345.00000477 -499.99998929
v -226.95298195 330.76505772 19.99999538
v -270.53220272 330.76505772 19.99999538
v -270.53220272 330.7650586 1.446E-05
v -226.95298195 330.7650586 1.446E-05
v -226.95298195 330.76508045 -499.99998991
v 22.04810828 344.99998291 1.508E-05
v 22.04810828 345.00000477 -499.99998929
v 22.04810828 344.99998204 19.99999601
v -22.23993391 330.76508045 -499.99998991
v 232.76193142 345.00000477 -499.99998929
v 272.41542339 330.76505772 19.99999538
v 232.76193142 330.76505772 19.99999538
v 232.76193142 330.7650586 1.446E-05
v 272.41542339 330.7650586 1.446E-05
v 22.04811126 330.76508045 -499.99998991
v 272.41542339 345.00000477 -499.99998929
v -22.23993391 344.99998204 19.99999601
v 232.76193142 330.76508045 -499.99998991
v 519.99998093 330.76505772 19.99999538
v 476.07369423 330.76505772 19.99999538
v 476.07369423 330.7650586 1.446E-05
v 519.99998093 330.7650586 1.446E-05
v 272.41542339 330.76508045 -499.99998991
v 519.99998093 344.99998291 1.508E-05
v -226.95298195 344.99998204 19.99999601
v 476.07369423 280.80320358 -499.9999921
v 476.07369423 54.00061607 -500.00000201
v 272.41549492 54.00061607 -500.00000201
v 272.41542339 280.80320358 -499.9999921
v 476.07369423 54.00059466 -9.9999881
v 272.41549492 54.00059466 -9.9999881
v 272.41549492 54.00059422 2.36E-06
v 476.07369423 54.00059422 2.36E-06
v 232.76195526 54.00061607 -500.00000201
v 232.76193142 280.80320358 -499.9999921
v 272.41542339 280.80318173 1.227E-05
v 232.76193142 280.80318173 1.227E-05
v 232.76195526 54.00059422 2.36E-06
v 272.41549492 54.00059422 2.36E-06
v 22.04813659 54.00061607 -500.00000201
v 22.04811424 280.80320358 -499.9999921
v 232.76193142 280.80318216 -9.99997819
v 232.76195526 54.00059466 -9.9999881
v 232.76195526 54.00059422 2.36E-06
v 232.76193142 280.80318173 1.227E-05
v -22.23992199 54.00061607 -500.00000201
v -22.23993093 280.80320358 -499.9999921
v 22.04811424 280.80318173 1.227E-05
v -22.23993093 280.80318173 1.227E-05
v -22.23992199 54.00059422 2.36E-06
v 22.04813659 54.00059422 2.36E-06
v -226.95298195 54.00061607 -500.00000201
v -226.95298195 280.80320358 -499.9999921
v -22.23992199 54.00059466 -9.9999881
v -226.95298195 54.00059466 -9.9999881
v -226.95298195 54.00059422 2.36E-06
v -22.23992199 54.00059422 2.36E-06
v -270.53220272 54.00061607 -500.00000201
v -270.53220272 280.80320358 -499.9999921
v -226.95298195 280.80318173 1.227E-05
v -270.53220272 280.80318173 1.227E-05
v -270.53220272 54.00059422 2.36E-06
v -226.95298195 54.00059422 2.36E-06
v -476.70712471 54.00061607 -500.00000201
v -476.70712471 280.80320358 -499.9999921
v -270.53220272 54.00059466 -9.9999881
v -476.70712471 54.00059466 -9.9999881
v -476.70712471 54.00059422 2.36E-06
v -270.53220272 54.00059422 2.36E-06
v -519.99998093 54.00061607 -500.00000201
v -519.99998093 280.80320358 -499.9999921
v -476.70712471 280.80318173 1.227E-05
v -519.99998093 280.80318173 1.227E-05
v -476.70712471 54.00059422 2.36E-06
v -519.99998093 330.7650586 1.446E-05
v -519.99998093 330.76508045 -499.99998991
v -519.99998093 280.80320358 -499.9999921
v 519.99998093 280.80318173 1.227E-05
v 476.07369423 280.80318173 1.227E-05
v 476.07369423 54.00059422 2.36E-06
v 519.99998093 54.00059422 2.36E-06
v 519.99998093 280.80320358 -499.9999921
v 519.99998093 54.00061607 -500.00000201
v 519.99998093 0 -500.00000437
v 476.07369423 0 -500.00000437
v 476.07369423 -2.186E-05 -0
v 519.99998093 -2.186E-05 -0
v 519.99998093 0 -500.00000437
v 519.99998093 54.00061607 -500.00000201
v -476.70712471 -2.186E-05 -0
v -476.70712471 0 -500.00000437
v -519.99998093 0 -500.00000437
v -270.53220272 -2.186E-05 -0
v -270.53220272 0 -500.00000437
v -226.95298195 -2.186E-05 -0
v -226.95298195 0 -500.00000437
v -22.23991752 -2.186E-05 -0
v -22.23991752 0 -500.00000437
v 22.04813957 -2.186E-05 -0
v 22.04813957 0 -500.00000437
v 232.76195526 -2.186E-05 -0
v 232.76195526 0 -500.00000437
v 272.41549492 -2.186E-05 -0
v 272.41549492 0 -500.00000437
v -529.99997139 330.76508045 -499.99998991
v -529.99997139 345.00000477 -499.99998929
v 476.07369423 330.76508045 -499.99998991
v 272.41542339 330.76508045 -499.99998991
v 476.07369423 330.7650586 1.446E-05
v 272.41542339 330.7650586 1.446E-05
v 232.76193142 330.76508045 -499.99998991
v 232.76193142 330.7650586 1.446E-05
v 22.04811126 330.76508045 -499.99998991
v 22.04811126 330.7650586 1.446E-05
v -22.23993391 330.76508045 -499.99998991
v -22.23993391 330.7650586 1.446E-05
v -226.95298195 330.76508045 -499.99998991
v -226.95298195 330.7650586 1.446E-05
v -270.53220272 330.76508045 -499.99998991
v -270.53220272 330.7650586 1.446E-05
v -476.70712471 330.76508045 -499.99998991
v -476.70712471 330.7650586 1.446E-05
v -519.99998093 330.76508045 -499.99998991
v 519.99998093 330.7650586 1.446E-05
v 519.99998093 330.76508045 -499.99998991
v -270.53220272 280.80318216 -9.99997819
v -476.70712471 280.80318216 -9.99997819
v -476.70712471 54.00059466 -9.9999881
v -270.53220272 54.00059466 -9.9999881
v -270.53220272 280.80318216 -9.99997819
v -270.53220272 54.00059466 -9.9999881
v -270.53220272 54.00059422 2.36E-06
v -270.53220272 280.80318173 1.227E-05
v -476.70712471 280.80318216 -9.99997819
v -476.70712471 280.80318173 1.227E-05
v -22.23993093 280.80318216 -9.99997819
v -226.95298195 280.80318216 -9.99997819
v -226.95298195 54.00059466 -9.9999881
v -22.23992199 54.00059466 -9.9999881
v -22.23993093 280.80318216 -9.99997819
v -22.23993093 280.80318173 1.227E-05
v -226.95298195 54.00059466 -9.9999881
v -226.95298195 280.80318216 -9.99997819
v -226.95298195 280.80318173 1.227E-05
v -226.95298195 54.00059422 2.36E-06
v 232.76193142 280.80318216 -9.99997819
v 22.04811424 280.80318216 -9.99997819
v 22.04813659 54.00059466 -9.9999881
v 232.76195526 54.00059466 -9.9999881
v 22.04811424 280.80318216 -9.99997819
v 22.04811424 280.80318173 1.227E-05
v 22.04813659 54.00059466 -9.9999881
v 22.04813659 54.00059422 2.36E-06
v 22.04813659 54.00059466 -9.9999881
v 22.04813659 54.00059422 2.36E-06
v 476.07369423 280.80318216 -9.99997819
v 272.41542339 280.80318216 -9.99997819
v 272.41549492 54.00059466 -9.9999881
v 476.07369423 54.00059466 -9.9999881
v 476.07369423 280.80318216 -9.99997819
v 476.07369423 280.80318173 1.227E-05
v 272.41542339 280.80318216 -9.99997819
v 272.41542339 280.80318173 1.227E-05
v 272.41542339 280.80318216 -9.99997819
v 272.41542339 280.80318173 1.227E-05
v 519.99998093 344.99998204 19.99999601
v 476.07369423 330.76505772 19.99999538
v 519.99998093 330.76505772 19.99999538
v -476.70712471 344.99998204 19.99999601
v -519.99998093 330.76505772 19.99999538
v -476.70712471 330.76505772 19.99999538
v -270.53220272 344.99998204 19.99999601
v -270.53220272 330.76505772 19.99999538
v -226.95298195 330.76505772 19.99999538
v -22.23993391 330.76505772 19.99999538
v 22.04811126 330.76505772 19.99999538
v 232.76193142 330.76505772 19.99999538
v 272.41542339 330.76505772 19.99999538
v 22.04811126 330.76505772 19.99999538
v 22.04811126 330.7650586 1.446E-05
v -476.70712471 330.76505772 19.99999538
v -476.70712471 330.7650586 1.446E-05
v 519.99998093 330.76505772 19.99999538
v 519.99998093 330.7650586 1.446E-05
v -22.23993391 330.76505772 19.99999538
v -22.23993391 330.7650586 1.446E-05
v -519.99998093 330.76505772 19.99999538
v -519.99998093 330.7650586 1.446E-05
v -529.99997139 330.76505772 19.99999538
v -529.99997139 330.7650586 1.446E-05
v -529.99997139 330.76508045 -499.99998991
v -529.99997139 330.76505772 19.99999538
v -529.99997139 330.7650586 1.446E-05
v -529.99997139 330.76505772 19.99999538
vn 0 0 -1
vn 0 1 0
vn -1 0 0
vn 0 -1 0
vn 0 0 1
vn -1 -0 0
vn 1 0 0
vn -1 -0 0
vn 1 0 0
vn 1 0 0
vt 0.69844 0.26614
vt 0.69844 0.273
vt 0.67729 0.273
vt 0.67729 0.26614
vt 0.19295 0.02543
vt 0.19295 0.0158
vt 0.19776 0.0158
vt 0.19776 0.02543
vt 0.00895 0.75034
vt 0.03495 0.75034
vt 0.03495 0.99105
vt 0.00895 0.99105
vt 0.2186 0.02543
vt 0.2186 0.26614
vt 0.19776 0.26614
vt 0.31786 0.02543
vt 0.31786 0.26614
vt 0.57924 0.0158
vt 0.67729 0.0158
vt 0.67729 0.02543
vt 0.57924 0.02543
vt 0.2186 0.273
vt 0.19776 0.273
vt 0.33884 0.02543
vt 0.33884 0.26614
vt 0.56015 0.0158
vt 0.56015 0.02543
vt 0.31786 0.273
vt 0.43739 0.02543
vt 0.43739 0.26614
vt 0.33884 0.52333
vt 0.31786 0.52333
vt 0.31786 0.51371
vt 0.33884 0.51371
vt 0.33884 0.273
vt 0.45871 0.02543
vt 0.45871 0.26614
vt 0.45871 0.0158
vt 0.43739 0.273
vt 0.56015 0.26614
vt 0.57924 0.52333
vt 0.56015 0.52333
vt 0.56015 0.51371
vt 0.57924 0.51371
vt 0.45871 0.273
vt 0.57924 0.26614
vt 0.43739 0.0158
vt 0.56015 0.273
vt 0.69844 0.52333
vt 0.67729 0.52333
vt 0.67729 0.51371
vt 0.69844 0.51371
vt 0.57924 0.273
vt 0.69844 0.02543
vt 0.33884 0.0158
vt 0.20724 0.67642
vt 0.20724 0.56724
vt 0.30528 0.56724
vt 0.30528 0.67642
vt 0.39332 0.78653
vt 0.49137 0.78653
vt 0.49137 0.79135
vt 0.39332 0.79135
vt 0.32437 0.56724
vt 0.32437 0.67642
vt 0.14414 0.36885
vt 0.14414 0.38794
vt 0.03495 0.38794
vt 0.03495 0.36885
vt 0.42582 0.56724
vt 0.42582 0.67642
vt 0.39672 0.72319
vt 0.28753 0.72319
vt 0.28753 0.71838
vt 0.39672 0.71838
vt 0.44714 0.56724
vt 0.44714 0.67642
vt 0.14414 0.48939
vt 0.14414 0.51071
vt 0.03495 0.51071
vt 0.03495 0.48939
vt 0.54569 0.56724
vt 0.54569 0.67642
vt 0.50302 0.76381
vt 0.60157 0.76381
vt 0.60157 0.76863
vt 0.50302 0.76863
vt 0.56667 0.56724
vt 0.56667 0.67642
vt 0.14414 0.60926
vt 0.14414 0.63024
vt 0.03495 0.63024
vt 0.03495 0.60926
vt 0.66593 0.56724
vt 0.66593 0.67642
vt 0.18609 0.7411
vt 0.28535 0.7411
vt 0.28535 0.74591
vt 0.18609 0.74591
vt 0.68677 0.56723
vt 0.68677 0.67642
vt 0.14414 0.7295
vt 0.14414 0.75034
vt 0.03495 0.7295
vt 0.16819 0.75034
vt 0.16819 0.99105
vt 0.14414 0.99105
vt 0.14414 0.24966
vt 0.14414 0.27081
vt 0.03495 0.27081
vt 0.03495 0.24966
vt 0.18609 0.67642
vt 0.18609 0.56724
vt 0.18609 0.54124
vt 0.20724 0.54124
vt 0.00895 0.27081
vt 0.00895 0.24966
vt 0.00895 0.00895
vt 0.03495 0.00895
vt 0.00895 0.7295
vt 0.66593 0.54124
vt 0.68677 0.54124
vt 0.00895 0.63024
vt 0.56667 0.54124
vt 0.00895 0.60926
vt 0.54569 0.54124
vt 0.00895 0.51071
vt 0.44714 0.54124
vt 0.00895 0.48939
vt 0.42582 0.54124
vt 0.00895 0.38794
vt 0.32437 0.54124
vt 0.00895 0.36885
vt 0.30528 0.54124
vt 0.19295 0.273
vt 0.19295 0.26614
vt 0.20724 0.70047
vt 0.30528 0.70047
vt 0.16819 0.27081
vt 0.16819 0.36885
vt 0.32437 0.70047
vt 0.16819 0.38794
vt 0.42582 0.70047
vt 0.16819 0.48939
vt 0.44714 0.70047
vt 0.16819 0.51071
vt 0.54569 0.70047
vt 0.16819 0.60926
vt 0.56667 0.70047
vt 0.16819 0.63024
vt 0.66593 0.70047
vt 0.16819 0.7295
vt 0.68677 0.70047
vt 0.16819 0.24966
vt 0.18609 0.70047
vt 0.22263 0.32247
vt 0.35791 0.32247
vt 0.35791 0.47127
vt 0.22263 0.47127
vt 0.49379 0.7411
vt 0.60298 0.7411
vt 0.60298 0.74591
vt 0.49379 0.74591
vt 0.39454 0.7411
vt 0.39454 0.74591
vt 0.38231 0.32247
vt 0.51662 0.32247
vt 0.51662 0.47127
vt 0.38231 0.47127
vt 0.39383 0.76381
vt 0.39383 0.76863
vt 0.18609 0.76381
vt 0.29528 0.76381
vt 0.29528 0.76863
vt 0.18609 0.76863
vt 0.29528 0.80925
vt 0.29528 0.91069
vt 0.18609 0.91069
vt 0.18609 0.80925
vt 0.49816 0.72319
vt 0.49816 0.71838
vt 0.60735 0.72319
vt 0.60735 0.71838
vt 0.18609 0.72319
vt 0.18609 0.71838
vt 0.67464 0.47127
vt 0.54102 0.47127
vt 0.54102 0.32247
vt 0.67464 0.32247
vt 0.28414 0.78653
vt 0.28414 0.79135
vt 0.60056 0.78653
vt 0.60056 0.79135
vt 0.18609 0.78653
vt 0.18609 0.79135
vt 0.69844 0.0158
vt 0.67729 0.00895
vt 0.69844 0.00895
vt 0.2186 0.0158
vt 0.19776 0.00895
vt 0.2186 0.00895
vt 0.31786 0.0158
vt 0.31786 0.00895
vt 0.33884 0.00895
vt 0.43739 0.00895
vt 0.45871 0.00895
vt 0.56015 0.00895
vt 0.57924 0.00895
vt 0.45871 0.52333
vt 0.45871 0.51371
vt 0.2186 0.52333
vt 0.2186 0.51371
vt 0.70529 0.0158
vt 0.70529 0.02543
vt 0.43739 0.52333
vt 0.43739 0.51371
vt 0.19776 0.52333
vt 0.19776 0.51371
vt 0.18609 0.0158
vt 0.18609 0.02543
vt 0.18609 0.26614
vt 0.19295 0.00895
vt 0.19295 0.51371
vt 0.19295 0.52333
usemtl mat0
f 1/1/1 2/2/1 3/3/1
f 3/3/1 4/4/1 1/1/1
f 5/5/2 6/6/2 7/7/2
f 7/7/2 8/8/2 5/5/2
f 9/9/3 10/10/3 11/11/3
f 11/11/3 12/12/3 9/9/3
f 8/8/2 13/13/2 14/14/2
f 14/14/2 15/15/2 8/8/2
f 13/13/2 16/16/2 17/17/2
f 17/17/2 14/14/2 13/13/2
f 18/18/2 19/19/2 20/20/2
f 20/20/2 21/21/2 18/18/2
f 14/14/1 22/22/1 23/23/1
f 23/23/1 15/15/1 14/14/1
f 16/16/2 24/24/2 25/25/2
f 25/25/2 17/17/2 16/16/2
f 26/26/2 18/18/2 21/21/2
f 21/21/2 27/27/2 26/26/2
f 17/17/1 28/28/1 22/22/1
f 22/22/1 14/14/1 17/17/1
f 24/24/2 29/29/2 30/30/2
f 30/30/2 25/25/2 24/24/2
f 31/31/4 32/32/4 33/33/4
f 33/33/4 34/34/4 31/31/4
f 25/25/1 35/35/1 28/28/1
f 28/28/1 17/17/1 25/25/1
f 29/29/2 36/36/2 37/37/2
f 37/37/2 30/30/2 29/29/2
f 38/38/2 26/26/2 27/27/2
f 27/27/2 36/36/2 38/38/2
f 30/30/1 39/39/1 35/35/1
f 35/35/1 25/25/1 30/30/1
f 36/36/2 27/27/2 40/40/2
f 40/40/2 37/37/2 36/36/2
f 41/41/4 42/42/4 43/43/4
f 43/43/4 44/44/4 41/41/4
f 37/37/1 45/45/1 39/39/1
f 39/39/1 30/30/1 37/37/1
f 27/27/2 21/21/2 46/46/2
f 46/46/2 40/40/2 27/27/2
f 47/47/2 38/38/2 36/36/2
f 36/36/2 29/29/2 47/47/2
f 40/40/1 48/48/1 45/45/1
f 45/45/1 37/37/1 40/40/1
f 21/21/2 20/20/2 4/4/2
f 4/4/2 46/46/2 21/21/2
f 49/49/4 50/50/4 51/51/4
f 51/51/4 52/52/4 49/49/4
f 46/46/1 53/53/1 48/48/1
f 48/48/1 40/40/1 46/46/1
f 20/20/2 54/54/2 1/1/2
f 1/1/2 4/4/2 20/20/2
f 55/55/2 47/47/2 29/29/2
f 29/29/2 24/24/2 55/55/2
f 4/4/1 3/3/1 53/53/1
f 53/53/1 46/46/1 4/4/1
f 56/56/1 57/57/1 58/58/1
f 58/58/1 59/59/1 56/56/1
f 60/60/2 61/61/2 62/62/2
f 62/62/2 63/63/2 60/60/2
f 59/59/1 58/58/1 64/64/1
f 64/64/1 65/65/1 59/59/1
f 66/66/5 67/67/5 68/68/5
f 68/68/5 69/69/5 66/66/5
f 65/65/1 64/64/1 70/70/1
f 70/70/1 71/71/1 65/65/1
f 72/72/6 73/73/6 74/74/6
f 74/74/6 75/75/6 72/72/6
f 71/71/1 70/70/1 76/76/1
f 76/76/1 77/77/1 71/71/1
f 78/78/5 79/79/5 80/80/5
f 80/80/5 81/81/5 78/78/5
f 77/77/1 76/76/1 82/82/1
f 82/82/1 83/83/1 77/77/1
f 84/84/2 85/85/2 86/86/2
f 86/86/2 87/87/2 84/84/2
f 83/83/1 82/82/1 88/88/1
f 88/88/1 89/89/1 83/83/1
f 90/90/5 91/91/5 92/92/5
f 92/92/5 93/93/5 90/90/5
f 89/89/1 88/88/1 94/94/1
f 94/94/1 95/95/1 89/89/1
f 96/96/2 97/97/2 98/98/2
f 98/98/2 99/99/2 96/96/2
f 95/95/1 94/94/1 100/100/1
f 100/100/1 101/101/1 95/95/1
f 102/102/5 103/103/5 10/10/5
f 10/10/5 104/104/5 102/102/5
f 103/103/3 105/105/3 106/106/3
f 106/106/3 107/107/3 103/103/3
f 108/108/5 109/109/5 110/110/5
f 110/110/5 111/111/5 108/108/5
f 112/112/1 113/113/1 57/57/1
f 57/57/1 56/56/1 112/112/1
f 113/113/1 114/114/1 115/115/1
f 115/115/1 57/57/1 113/113/1
f 111/111/5 110/110/5 116/116/5
f 116/116/5 117/117/5 111/111/5
f 111/111/7 117/117/7 118/118/7
f 118/118/7 119/119/7 111/111/7
f 104/104/5 10/10/5 9/9/5
f 9/9/5 120/120/5 104/104/5
f 94/94/1 121/121/1 122/122/1
f 122/122/1 100/100/1 94/94/1
f 92/92/5 104/104/5 120/120/5
f 120/120/5 123/123/5 92/92/5
f 88/88/1 124/124/1 121/121/1
f 121/121/1 94/94/1 88/88/1
f 93/93/5 92/92/5 123/123/5
f 123/123/5 125/125/5 93/93/5
f 82/82/1 126/126/1 124/124/1
f 124/124/1 88/88/1 82/82/1
f 80/80/5 93/93/5 125/125/5
f 125/125/5 127/127/5 80/80/5
f 76/76/1 128/128/1 126/126/1
f 126/126/1 82/82/1 76/76/1
f 81/81/5 80/80/5 127/127/5
f 127/127/5 129/129/5 81/81/5
f 70/70/1 130/130/1 128/128/1
f 128/128/1 76/76/1 70/70/1
f 68/68/5 81/81/5 129/129/5
f 129/129/5 131/131/5 68/68/5
f 64/64/1 132/132/1 130/130/1
f 130/130/1 70/70/1 64/64/1
f 69/69/5 68/68/5 131/131/5
f 131/131/5 133/133/5 69/69/5
f 58/58/1 134/134/1 132/132/1
f 132/132/1 64/64/1 58/58/1
f 110/110/5 69/69/5 133/133/5
f 133/133/5 116/116/5 110/110/5
f 57/57/1 115/115/1 134/134/1
f 134/134/1 58/58/1 57/57/1
f 10/10/3 103/103/3 107/107/3
f 107/107/3 11/11/3 10/10/3
f 135/135/1 136/136/1 15/15/1
f 15/15/1 23/23/1 135/135/1
f 137/137/1 56/56/1 59/59/1
f 59/59/1 138/138/1 137/137/1
f 139/139/5 140/140/5 66/66/5
f 66/66/5 109/109/5 139/139/5
f 138/138/1 59/59/1 65/65/1
f 65/65/1 141/141/1 138/138/1
f 140/140/5 142/142/5 67/67/5
f 67/67/5 66/66/5 140/140/5
f 141/141/1 65/65/1 71/71/1
f 71/71/1 143/143/1 141/141/1
f 142/142/5 144/144/5 78/78/5
f 78/78/5 67/67/5 142/142/5
f 143/143/1 71/71/1 77/77/1
f 77/77/1 145/145/1 143/143/1
f 144/144/5 146/146/5 79/79/5
f 79/79/5 78/78/5 144/144/5
f 145/145/1 77/77/1 83/83/1
f 83/83/1 147/147/1 145/145/1
f 146/146/5 148/148/5 90/90/5
f 90/90/5 79/79/5 146/146/5
f 147/147/1 83/83/1 89/89/1
f 89/89/1 149/149/1 147/147/1
f 148/148/5 150/150/5 91/91/5
f 91/91/5 90/90/5 148/148/5
f 149/149/1 89/89/1 95/95/1
f 95/95/1 151/151/1 149/149/1
f 150/150/5 152/152/5 102/102/5
f 102/102/5 91/91/5 150/150/5
f 151/151/1 95/95/1 101/101/1
f 101/101/1 153/153/1 151/151/1
f 152/152/5 105/105/5 103/103/5
f 103/103/5 102/102/5 152/152/5
f 154/154/5 139/139/5 109/109/5
f 109/109/5 108/108/5 154/154/5
f 155/155/1 112/112/1 56/56/1
f 56/56/1 137/137/1 155/155/1
f 156/156/5 157/157/5 158/158/5
f 158/158/5 159/159/5 156/156/5
f 160/160/3 161/161/3 162/162/3
f 162/162/3 163/163/3 160/160/3
f 97/97/7 164/164/7 165/165/7
f 165/165/7 98/98/7 97/97/7
f 164/164/4 160/160/4 163/163/4
f 163/163/4 165/165/4 164/164/4
f 166/166/5 167/167/5 168/168/5
f 168/168/5 169/169/5 166/166/5
f 170/170/8 84/84/8 87/87/8
f 87/87/8 171/171/8 170/170/8
f 172/172/7 173/173/7 174/174/7
f 174/174/7 175/175/7 172/172/7
f 173/173/4 170/170/4 171/171/4
f 171/171/4 174/174/4 173/173/4
f 176/176/5 177/177/5 178/178/5
f 178/178/5 179/179/5 176/176/5
f 180/180/4 72/72/4 75/75/4
f 75/75/4 181/181/4 180/180/4
f 182/182/9 180/180/9 181/181/9
f 181/181/9 183/183/9 182/182/9
f 73/73/2 184/184/2 185/185/2
f 185/185/2 74/74/2 73/73/2
f 186/186/5 187/187/5 188/188/5
f 188/188/5 189/189/5 186/186/5
f 190/190/3 60/60/3 63/63/3
f 63/63/3 191/191/3 190/190/3
f 61/61/10 192/192/10 193/193/10
f 193/193/10 62/62/10 61/61/10
f 194/194/4 190/190/4 191/191/4
f 191/191/4 195/195/4 194/194/4
f 196/196/5 19/19/5 197/197/5
f 197/197/5 198/198/5 196/196/5
f 199/199/5 7/7/5 200/200/5
f 200/200/5 201/201/5 199/199/5
f 202/202/5 199/199/5 201/201/5
f 201/201/5 203/203/5 202/202/5
f 55/55/5 202/202/5 203/203/5
f 203/203/5 204/204/5 55/55/5
f 47/47/5 55/55/5 204/204/5
f 204/204/5 205/205/5 47/47/5
f 38/38/5 47/47/5 205/205/5
f 205/205/5 206/206/5 38/38/5
f 26/26/5 38/38/5 206/206/5
f 206/206/5 207/207/5 26/26/5
f 18/18/5 26/26/5 207/207/5
f 207/207/5 208/208/5 18/18/5
f 19/19/5 18/18/5 208/208/5
f 208/208/5 197/197/5 19/19/5
f 42/42/4 209/209/4 210/210/4
f 210/210/4 43/43/4 42/42/4
f 19/19/2 196/196/2 54/54/2
f 54/54/2 20/20/2 19/19/2
f 32/32/4 211/211/4 212/212/4
f 212/212/4 33/33/4 32/32/4
f 196/196/7 213/213/7 214/214/7
f 214/214/7 54/54/7 196/196/7
f 209/209/4 215/215/4 216/216/4
f 216/216/4 210/210/4 209/209/4
f 211/211/4 217/217/4 218/218/4
f 218/218/4 212/212/4 211/211/4
f 7/7/2 199/199/2 13/13/2
f 13/13/2 8/8/2 7/7/2
f 199/199/2 202/202/2 16/16/2
f 16/16/2 13/13/2 199/199/2
f 50/50/4 41/41/4 44/44/4
f 44/44/4 51/51/4 50/50/4
f 202/202/2 55/55/2 24/24/2
f 24/24/2 16/16/2 202/202/2
f 215/215/4 31/31/4 34/34/4
f 34/34/4 216/216/4 215/215/4
f 219/219/3 6/6/3 5/5/3
f 5/5/3 220/220/3 219/219/3
f 220/220/3 5/5/3 136/136/3
f 136/136/3 221/221/3 220/220/3
f 6/6/5 222/222/5 200/200/5
f 200/200/5 7/7/5 6/6/5
f 136/136/2 5/5/2 8/8/2
f 8/8/2 15/15/2 136/136/2
f 223/223/4 135/135/4 23/23/4
f 23/23/4 218/218/4 223/223/4
f 224/224/4 223/223/4 218/218/4
f 218/218/4 217/217/4 224/224/4
# Vertices: 224, normals: 10, texture coordinates: 224, faces: 256

# Low_Polly_02_1
o obj2
v 519.94807243 460.00002722 -499.82573613
v 519.94807243 316.21881823 -499.82572984
v 519.94807243 316.21884008 0.17436553
v 519.94807243 500.00005861 0.17435749
v 1019.9481678 460.00002722 -499.82573613
v 1019.9481678 316.21881823 -499.82572984
v 960.44719934 316.21881823 -499.82572984
v 960.44719934 460.00002722 -499.82573613
v 1019.9481678 500.00005861 0.17435749
v 1019.9481678 316.21884008 0.17436553
v 1019.9481678 316.21881823 -499.82572984
v 1019.9481678 460.00002722 -499.82573613
v 586.16688967 316.21884008 0.17436553
v 586.16688967 500.00005861 0.17435749
v 519.94807243 279.80576654 0.17436712
v 586.16688967 279.80576654 0.17436712
v 1019.9481678 279.80576654 0.17436712
v 1019.9481678 279.80574469 -499.82572825
v 1019.9481678 279.80574469 -499.82572825
v 960.44719934 279.80574469 -499.82572825
v 1019.9481678 -1.093E-05 -499.82571602
v 960.44719934 -1.093E-05 -499.82571602
v 1019.9481678 1.093E-05 0.17437935
v 1019.9481678 -1.093E-05 -499.82571602
v 519.94807243 1.093E-05 0.17437935
v 586.16688967 1.093E-05 0.17437935
v 960.44719934 279.80576611 -9.82562335
v 960.44719934 1.049E-05 -9.82561111
v 960.44719934 1.093E-05 0.17437935
v 960.44719934 279.80576654 0.17436712
v 586.16688967 279.80574469 -499.82572825
v 586.16688967 -1.093E-05 -499.82571602
v 519.94807243 -1.093E-05 -499.82571602
v 519.94807243 279.80574469 -499.82572825
v 586.16688967 316.21881823 -499.82572984
v 519.94807243 316.21881823 -499.82572984
v 960.44719934 279.80576654 0.17436712
v 960.44719934 316.21884008 0.17436553
v 960.44719934 500.00005861 0.17435749
v 586.16688967 460.00002722 -499.82573613
v 519.94807243 460.00002722 -499.82573613
v 960.44719934 1.093E-05 0.17437935
v 586.16688967 279.80576611 -9.82562335
v 586.16688967 1.049E-05 -9.82561111
v 960.44719934 1.049E-05 -9.82561111
v 960.44719934 279.80576611 -9.82562335
v 586.16688967 1.049E-05 -9.82561111
v 586.16688967 279.80576611 -9.82562335
v 586.16688967 279.80576654 0.17436712
v 586.16688967 1.093E-05 0.17437935
v 899.72018719 728.49368348 -410.3031
v 899.72018719 478.13047661 -410.30308906
v 894.00708199 478.13047659 -410.86578075
v 894.00708199 728.49368345 -410.86579169
v 905.21374464 728.49368355 -408.6366495
v 905.21374464 478.13047669 -408.63663856
v 910.27662277 728.49368367 -405.93047942
v 910.27662277 478.1304768 -405.93046848
v 914.71428394 728.49368383 -402.28858794
v 914.71428394 478.13047696 -402.288577
v 918.35617542 728.49368402 -397.85092677
v 918.35617542 478.13047716 -397.85091583
v 921.0623455 728.49368424 -392.78804864
v 921.0623455 478.13047738 -392.7880377
v 922.72879601 728.49368448 -387.29449119
v 922.72879601 478.13047762 -387.29448024
v 923.29148769 728.49368473 -381.58138598
v 923.29148769 478.13047787 -381.58137504
v 922.72879601 728.49368498 -375.86828078
v 922.72879601 478.13047812 -375.86826984
v 921.0623455 728.49368522 -370.37472333
v 921.0623455 478.13047836 -370.37471239
v 918.35617542 728.49368544 -365.3118452
v 918.35617542 478.13047858 -365.31183425
v 914.71428394 728.49368564 -360.87418403
v 914.71428394 478.13047877 -360.87417308
v 910.27662277 728.4936858 -357.23229255
v 910.27662277 478.13047893 -357.2322816
v 905.21374464 728.49368591 -354.52612247
v 905.21374464 478.13047905 -354.52611152
v 899.72018719 728.49368599 -352.85967196
v 899.72018719 478.13047912 -352.85966102
v 894.00708199 728.49368601 -352.29698028
v 894.00708199 478.13047915 -352.29696933
v 888.29397678 728.49368599 -352.85967196
v 888.29397678 478.13047912 -352.85966102
v 882.80041933 728.49368591 -354.52612247
v 882.80041933 478.13047905 -354.52611152
v 877.7375412 728.4936858 -357.23229255
v 877.7375412 478.13047893 -357.2322816
v 873.29988003 728.49368564 -360.87418403
v 873.29988003 478.13047877 -360.87417308
v 869.65798855 728.49368544 -365.3118452
v 869.65798855 478.13047858 -365.31183425
v 866.95181847 728.49368522 -370.37472333
v 866.95181847 478.13047836 -370.37471239
v 865.28536797 728.49368498 -375.86828078
v 865.28536797 478.13047812 -375.86826984
v 864.72267628 728.49368473 -381.58138598
v 864.72267628 478.13047787 -381.58137504
v 865.28536797 728.49368448 -387.29449119
v 865.28536797 478.13047762 -387.29448024
v 866.95181847 728.49368424 -392.78804864
v 866.95181847 478.13047738 -392.7880377
v 869.65798855 728.49368402 -397.85092677
v 869.65798855 478.13047716 -397.85091583
v 873.29988003 728.49368383 -402.28858794
v 873.29988003 478.13047696 -402.288577
v 877.7375412 728.49368367 -405.93047942
v 877.7375412 478.1304768 -405.93046848
v 882.80041933 728.49368355 -408.6366495
v 882.80041933 478.13047669 -408.63663856
v 888.29397678 728.49368348 -410.3031
v 888.29397678 478.13047661 -410.30308906
v 894.00708199 728.49368345 -410.86579169
v 894.00708199 478.13047659 -410.86578075
v 905.71256399 798.13050391 -440.42848261
v 905.71256399 728.13042761 -440.42847955
v 894.00714159 728.13042756 -441.58136451
v 894.00714159 798.13050386 -441.58136757
v 916.96815014 798.13050406 -437.01413782
v 916.96815014 728.13042776 -437.01413476
v 927.34136105 798.1305043 -431.46954687
v 927.34136105 728.130428 -431.46954381
v 936.43354893 798.13050462 -424.00777252
v 936.43354893 728.13042833 -424.00776946
v 943.89532328 798.13050502 -414.91557272
v 943.89532328 728.13042873 -414.91556966
v 949.43991423 798.13050547 -404.54237374
v 949.43991423 728.13042918 -404.54237068
v 952.85425901 798.13050597 -393.28678759
v 952.85425901 728.13042967 -393.28678453
v 954.00714397 798.13050648 -381.58136519
v 954.00714397 728.13043018 -381.58136213
v 952.85425901 798.13050699 -369.87594279
v 952.85425901 728.1304307 -369.87593973
v 949.43991423 798.13050748 -358.62035664
v 949.43991423 728.13043119 -358.62035358
v 943.89532328 798.13050794 -348.24714573
v 943.89532328 728.13043164 -348.24714267
v 936.43354893 798.13050833 -339.15494593
v 936.43354893 728.13043204 -339.15494287
v 927.34136105 798.13050866 -331.6931835
v 927.34136105 728.13043237 -331.69318044
v 916.96815014 798.1305089 -326.14858659
v 916.96815014 728.13043261 -326.14858353
v 905.71256399 798.13050905 -322.7342418
v 905.71256399 728.13043276 -322.73423874
v 894.00714159 798.1305091 -321.58135684
v 894.00714159 728.13043281 -321.58135378
v 882.30171919 798.13050905 -322.7342418
v 882.30171919 728.13043276 -322.73423874
v 871.04613304 798.1305089 -326.14858659
v 871.04613304 728.13043261 -326.14858353
v 860.67292213 798.13050866 -331.6931835
v 860.67292213 728.13043237 -331.69318044
v 851.58072233 798.13050833 -339.15494593
v 851.58072233 728.13043204 -339.15494287
v 844.1189599 798.13050794 -348.24714573
v 844.1189599 728.13043164 -348.24714267
v 838.57436299 798.13050748 -358.62035664
v 838.57436299 728.13043119 -358.62035358
v 835.16001821 798.13050699 -369.87594279
v 835.16001821 728.1304307 -369.87593973
v 834.00713325 798.13050648 -381.58136519
v 834.00713325 728.13043018 -381.58136213
v 835.16001821 798.13050597 -393.28678759
v 835.16001821 728.13042967 -393.28678453
v 838.57436299 798.13050547 -404.54237374
v 838.57436299 728.13042918 -404.54237068
v 844.1189599 798.13050502 -414.91557272
v 844.1189599 728.13042873 -414.91556966
v 851.58072233 798.13050462 -424.00777252
v 851.58072233 728.13042833 -424.00776946
v 860.67292213 798.1305043 -431.46954687
v 860.67292213 728.130428 -431.46954381
v 871.04613304 798.13050406 -437.01413782
v 871.04613304 728.13042776 -437.01413476
v 882.30171919 798.13050391 -440.42848261
v 882.30171919 728.13042761 -440.42847955
v 894.00714159 798.13050386 -441.58136757
v 894.00714159 728.13042756 -441.58136451
v 852.74056911 728.13047666 -409.15479267
v 848.15418243 728.13047704 -400.5742749
v 838.57436299 728.13042918 -404.54237068
v 844.1189599 728.13042873 -414.91556966
v 935.27369022 728.13047666 -409.15479267
v 929.10145044 728.13047633 -416.6756829
v 936.43354893 728.13042833 -424.00776946
v 943.89532328 728.13042873 -414.91556966
v 913.00004244 728.13047987 -335.72842085
v 921.58056021 728.13047967 -340.31480157
v 927.34136105 728.13043237 -331.69318044
v 916.96815014 728.13043261 -326.14858353
v 845.32991171 728.13047829 -371.89884984
v 848.15418243 728.1304787 -362.58844936
v 838.57436299 728.13043119 -358.62035358
v 835.16001821 728.1304307 -369.87593973
v 903.68963003 728.13047574 -430.25858009
v 894.00712967 728.1304757 -431.21221864
v 894.00714159 728.13042756 -441.58136451
v 905.71256399 728.13042761 -440.42847955
v 884.32462931 728.13047574 -430.25858009
v 882.30171919 728.13042761 -440.42847955
v 939.86006498 728.1304787 -362.58844936
v 942.68434763 728.13047829 -371.89884984
v 952.85425901 728.1304307 -369.87593973
v 949.43991423 728.13043119 -358.62035358
v 866.43369913 728.13047967 -340.31480157
v 875.0142169 728.13047987 -335.72842085
v 871.04613304 728.13043261 -326.14858353
v 860.67292213 728.13043237 -331.69318044
v 858.91280293 728.13047633 -416.6756829
v 851.58072233 728.13042833 -424.00776946
v 939.86006498 728.13047704 -400.5742749
v 949.43991423 728.13042918 -404.54237068
v 903.68963003 728.13048 -332.90413225
v 905.71256399 728.13043276 -322.73423874
v 844.37626123 728.13047787 -381.58136213
v 834.00713325 728.13043018 -381.58136213
v 913.00004244 728.13047586 -427.43429744
v 916.96815014 728.13042776 -437.01413476
v 935.27369022 728.13047907 -354.00791967
v 943.89532328 728.13043164 -348.24714267
v 858.91280293 728.1304794 -346.48702943
v 851.58072233 728.13043204 -339.15494287
v 866.43369913 728.13047606 -422.84791076
v 860.67292213 728.130428 -431.46954381
v 942.68434763 728.13047744 -391.26386249
v 952.85425901 728.13042967 -393.28678453
v 894.00712967 728.13048004 -331.95049369
v 894.00714159 728.13043281 -321.58135378
v 845.32991171 728.13047744 -391.26386249
v 835.16001821 728.13042967 -393.28678453
v 921.58056021 728.13047606 -422.84791076
v 927.34136105 728.130428 -431.46954381
v 929.10145044 728.1304794 -346.48702943
v 936.43354893 728.13043204 -339.15494287
v 852.74056911 728.13047907 -354.00791967
v 844.1189599 728.13043164 -348.24714267
v 875.0142169 728.13047586 -427.43429744
v 871.04613304 728.13042776 -437.01413476
v 943.63798618 728.13047787 -381.58136213
v 954.00714397 728.13043018 -381.58136213
v 884.32462931 728.13048 -332.90413225
v 882.30171919 728.13043276 -322.73423874
v 923.54084969 728.13052641 -361.84750402
v 926.82324171 728.13052615 -367.98843944
v 859.16963339 728.13052525 -388.51093852
v 858.48712444 728.13052555 -381.58133829
v 919.12348986 728.13052665 -356.46494233
v 861.19092226 728.13052496 -395.17424905
v 913.74091625 728.13052684 -352.04757058
v 864.47331429 728.13052469 -401.31517255
v 907.59998083 728.13052699 -348.76518452
v 900.93668222 728.13052403 -416.4187988
v 894.00708199 728.130524 -417.10129583
v 868.89067411 728.13052445 -406.69774616
v 900.93668222 728.13052707 -346.74388969
v 907.59998083 728.13052412 -414.39749801
v 874.27324772 728.13052426 -411.11510599
v 894.00708199 728.1305271 -346.06138074
v 913.74091625 728.13052426 -411.11510599
v 880.41418314 728.13052412 -414.39749801
v 887.07748175 728.13052707 -346.74388969
v 919.12348986 728.13052445 -406.69774616
v 887.07748175 728.13052403 -416.4187988
v 880.41418314 728.13052699 -348.76518452
v 923.54084969 728.13052469 -401.31517255
v 874.27324772 728.13052684 -352.04757058
v 926.82324171 728.13052496 -395.17424905
v 868.89067411 728.13052665 -356.46494233
v 928.84453058 728.13052525 -388.51093852
v 864.47331429 728.13052641 -361.84750402
v 929.52703953 728.13052555 -381.58133829
v 861.19092226 728.13052615 -367.98843944
v 928.84453058 728.13052585 -374.65173805
v 859.16963339 728.13052585 -374.65173805
v 894.00708199 728.13062092 -381.58135021
v 514.94814873 469.99992144 -519.82569365
v 514.94814873 459.99993098 -519.82569321
v 514.94814873 499.99996412 20.17431458
v 514.94814873 509.99995458 20.17431414
v 1024.94809151 469.99992144 -519.82569365
v 1024.94809151 459.99993098 -519.82569321
v 514.94814873 459.99993098 -519.82569321
v 514.94814873 469.99992144 -519.82569365
v 1024.94809151 509.99995458 20.17431414
v 1024.94809151 499.99996412 20.17431458
v 1024.94809151 459.99993098 -519.82569321
v 1024.94809151 469.99992144 -519.82569365
v 514.94814873 509.99995458 20.17431414
v 514.94814873 499.99996412 20.17431458
v 1024.94809151 499.99996412 20.17431458
v 1024.94809151 509.99995458 20.17431414
v 514.94814873 459.99993098 -519.82569321
v 1024.94809151 459.99993098 -519.82569321
vn -1 0 0
vn 0 1 0
vn 1 0 0
vn 0 -1 0
vn 1 0 0
vn -1 0 0
vn 0 0 -1
vn 0.09802 0.99518 0
vn 0.29028 0.95694 0
vn 0.4714 0.88192 0
vn 0.63439 0.77301 0
vn 0.77301 0.63439 0
vn 0.88192 0.4714 0
vn 0.95694 0.29028 0
vn 0.99518 0.09802 0
vn 0.99518 -0.09802 0
vn 0.95694 -0.29028 0
vn 0.88192 -0.4714 0
vn 0.77301 -0.63439 0
vn 0.63439 -0.77301 0
vn 0.4714 -0.88192 0
vn 0.29028 -0.95694 0
vn 0.09802 -0.99518 0
vn -0.09802 -0.99518 0
vn -0.29028 -0.95694 0
vn -0.4714 -0.88192 0
vn -0.63439 -0.77301 0
vn -0.77301 -0.63439 0
vn -0.88192 -0.4714 0
vn -0.95694 -0.29028 0
vn -0.99518 -0.09802 0
vn -0.99518 0.09802 0
vn -0.95694 0.29028 0
vn -0.88192 0.4714 0
vn -0.77301 0.63439 0
vn -0.63439 0.77301 0
vn -0.4714 0.88192 0
vn -0.29028 0.95694 0
vn -0.09802 0.99518 0
vn 0.09802 0.99518 0
vn 0.29028 0.95694 0
vn 0.4714 0.88192 0
vn 0.63439 0.77301 0
vn 0.77301 0.63439 0
vn 0.88192 0.4714 0
vn 0.95694 0.29028 0
vn 0.99518 0.09802 0
vn 0.99518 -0.09802 0
vn 0.95694 -0.29028 0
vn 0.88192 -0.4714 0
vn 0.77301 -0.63439 0
vn 0.63439 -0.77301 0
vn 0.4714 -0.88192 0
vn 0.29028 -0.95694 0
vn 0.09802 -0.99518 0
vn -0.09802 -0.99518 0
vn -0.29028 -0.95694 0
vn -0.4714 -0.88192 0
vn -0.63439 -0.77301 0
vn -0.77301 -0.63439 0
vn -0.88192 -0.4714 0
vn -0.95694 -0.29028 0
vn -0.99518 -0.09802 0
vn -0.99518 0.09802 0
vn -0.95694 0.29028 0
vn -0.88192 0.4714 0
vn -0.77301 0.63439 0
vn -0.63439 0.77301 0
vn -0.4714 0.88192 0
vn -0.29028 0.95694 0
vn -0.09802 0.99518 0
vn 1E-05 -0 -1
vn 0 -0 -1
vn -1E-05 0 -1
vn 0 0 -1
vn -0 -0 -1
vn -0 -0 -1
vn -1E-05 0 -1
vn 0 0 -1
vn -1E-05 -0 -1
vn -1E-05 -0 -1
vn -0 0 -1
vn 0 0 -1
vn -0 -0 -1
vn -1E-05 0 -1
vn 1E-05 0 -1
vn -1E-05 -0 -1
vn 0 -0 -1
vn -0 0 -1
vn 1E-05 -0 -1
vn -1E-05 -0 -1
vn 1E-05 0 -1
vn 0 0 -1
vn 1E-05 -0 -1
vn -1E-05 -0 -1
vn -0 0 -1
vn 0 -0 -1
vn 0 -0 -1
vn -1E-05 0 -1
vn 1E-05 0 -1
vn 0 -0 -1
vn 0 0 -1
vn 0 0 -1
vn -1E-05 0 -1
vn 1E-05 -0 -1
vn -1E-05 0 -1
vn 1E-05 -0 -1
vn -0 0 -1
vn 0 -0 -1
vn -0 0 -1
vn 0 -0 -1
vn 0 -0 -1
vn -0 0 -1
vn -1E-05 -0 -1
vn 0 -0 -1
vn 0 0 -1
vn -0 -0 -1
vn 1E-05 -0 -1
vn 0 0 -1
vn 0 -0 -1
vn 1E-05 -0 -1
vn -0 0 -1
vn -1E-05 -0 -1
vn -1E-05 -0 -1
vn 0 0 -1
vn 0 -0 -1
vn -0 0 -1
vn -1E-05 -0 -1
vn 1E-05 0 -1
vn -1E-05 -0 -1
vn 1E-05 0 -1
vn -1E-05 0 -1
vn 1E-05 0 -1
vn -1E-05 0 -1
vn 1E-05 0 -1
vn 0 0 -1
vn 0 -0 -1
vn 0 -0 -1
vn 0 0 -1
vn 0 -0 -1
vn 0 -0 -1
vn 0 0 -1
vn 0 -0 -1
vn 0 -0 -1
vn -0 -0 -1
vn 0 0 -1
vn 0 -0 -1
vn 1E-05 0 -1
vn -0 -0 -1
vn 0 0 -1
vn 0 0 -1
vn 0 0 -1
vn -0 0 -1
vn 0 0 -1
vn 0 0 -1
vn 0 -0 -1
vn -1E-05 0 -1
vn 0 -0 -1
vn 0 0 -1
vn 1E-05 -0 -1
vn -1 0 0
vn 1 -0 0
vn 0 -0.07387 -0.99727
vn 0 0.07387 0.99727
vt 0.30892 0.99418
vt 0.21418 0.99418
vt 0.21418 0.66473
vt 0.33527 0.66473
vt 0.36513 0.00582
vt 0.45987 0.00582
vt 0.45987 0.04502
vt 0.36513 0.04502
vt 0.33527 0.33527
vt 0.21418 0.33527
vt 0.21418 0.00582
vt 0.30892 0.00582
vt 0.21418 0.6211
vt 0.33527 0.6211
vt 0.19018 0.66473
vt 0.19018 0.6211
vt 0.19018 0.33527
vt 0.19018 0.00582
vt 0.48386 0.00582
vt 0.48386 0.04502
vt 0.66823 0.00582
vt 0.66823 0.04502
vt 0.00582 0.33527
vt 0.00582 0.00582
vt 0.00582 0.66473
vt 0.00582 0.6211
vt 0.34691 0.19018
vt 0.34691 0.00582
vt 0.3535 0.00582
vt 0.3535 0.19018
vt 0.48386 0.29164
vt 0.66823 0.29164
vt 0.66823 0.33527
vt 0.48386 0.33527
vt 0.45987 0.29164
vt 0.45987 0.33527
vt 0.19018 0.37448
vt 0.21418 0.37448
vt 0.33527 0.37448
vt 0.36513 0.29164
vt 0.36513 0.33527
vt 0.00582 0.37448
vt 0.5495 0.59352
vt 0.36513 0.59352
vt 0.36513 0.34691
vt 0.5495 0.34691
vt 0.34691 0.62117
vt 0.34691 0.4368
vt 0.3535 0.4368
vt 0.3535 0.62117
vt 0.57357 0.70014
vt 0.35583 0.70014
vt 0.35583 0.69857
vt 0.57357 0.69857
vt 0.57357 0.70171
vt 0.35583 0.70171
vt 0.57357 0.70328
vt 0.35583 0.70328
vt 0.57357 0.70485
vt 0.35583 0.70485
vt 0.57357 0.70642
vt 0.35583 0.70642
vt 0.57357 0.70799
vt 0.35583 0.70799
vt 0.57357 0.70956
vt 0.35583 0.70956
vt 0.57357 0.71113
vt 0.35583 0.71113
vt 0.57357 0.7127
vt 0.35583 0.7127
vt 0.57357 0.71427
vt 0.35583 0.71427
vt 0.57357 0.71584
vt 0.35583 0.71584
vt 0.57357 0.71741
vt 0.35583 0.71741
vt 0.57357 0.71898
vt 0.35583 0.71898
vt 0.57357 0.72055
vt 0.35583 0.72055
vt 0.57357 0.72212
vt 0.35583 0.72212
vt 0.57357 0.72369
vt 0.35583 0.72369
vt 0.57357 0.72525
vt 0.35583 0.72525
vt 0.57357 0.72682
vt 0.35583 0.72682
vt 0.57357 0.72839
vt 0.35583 0.72839
vt 0.57357 0.72996
vt 0.35583 0.72996
vt 0.57357 0.73153
vt 0.35583 0.73153
vt 0.57357 0.7331
vt 0.35583 0.7331
vt 0.57357 0.73467
vt 0.35583 0.73467
vt 0.57357 0.73624
vt 0.35583 0.73624
vt 0.57357 0.73781
vt 0.35583 0.73781
vt 0.57357 0.73938
vt 0.35583 0.73938
vt 0.57357 0.74095
vt 0.35583 0.74095
vt 0.57357 0.74252
vt 0.35583 0.74252
vt 0.57357 0.74409
vt 0.35583 0.74409
vt 0.57357 0.74566
vt 0.35583 0.74566
vt 0.57357 0.74723
vt 0.35583 0.74723
vt 0.57357 0.7488
vt 0.35583 0.7488
vt 0.46223 0.60554
vt 0.37748 0.60554
vt 0.37748 0.60289
vt 0.46223 0.60289
vt 0.46223 0.60818
vt 0.37748 0.60818
vt 0.46223 0.61083
vt 0.37748 0.61083
vt 0.46223 0.61348
vt 0.37748 0.61348
vt 0.46223 0.61613
vt 0.37748 0.61613
vt 0.46223 0.61878
vt 0.37748 0.61878
vt 0.46223 0.62143
vt 0.37748 0.62143
vt 0.46223 0.62407
vt 0.37748 0.62407
vt 0.46223 0.62672
vt 0.37748 0.62672
vt 0.46223 0.62937
vt 0.37748 0.62937
vt 0.46223 0.63202
vt 0.37748 0.63202
vt 0.46223 0.63467
vt 0.37748 0.63467
vt 0.46223 0.63732
vt 0.37748 0.63732
vt 0.46223 0.63997
vt 0.37748 0.63997
vt 0.46223 0.64261
vt 0.37748 0.64261
vt 0.46223 0.64526
vt 0.37748 0.64526
vt 0.46223 0.64791
vt 0.37748 0.64791
vt 0.46223 0.65056
vt 0.37748 0.65056
vt 0.46223 0.65321
vt 0.37748 0.65321
vt 0.46223 0.65586
vt 0.37748 0.65586
vt 0.46223 0.6585
vt 0.37748 0.6585
vt 0.46223 0.66115
vt 0.37748 0.66115
vt 0.46223 0.6638
vt 0.37748 0.6638
vt 0.46223 0.66645
vt 0.37748 0.66645
vt 0.46223 0.6691
vt 0.37748 0.6691
vt 0.46223 0.67175
vt 0.37748 0.67175
vt 0.46223 0.6744
vt 0.37748 0.6744
vt 0.46223 0.67704
vt 0.37748 0.67704
vt 0.46223 0.67969
vt 0.37748 0.67969
vt 0.46223 0.68234
vt 0.37748 0.68234
vt 0.46223 0.68499
vt 0.37748 0.68499
vt 0.46223 0.68764
vt 0.37748 0.68764
vt 0.50973 0.61008
vt 0.50336 0.61272
vt 0.49989 0.60623
vt 0.5076 0.60304
vt 0.555 0.64723
vt 0.555 0.64032
vt 0.56232 0.6396
vt 0.56232 0.64795
vt 0.50973 0.67747
vt 0.5165 0.67882
vt 0.51578 0.68614
vt 0.5076 0.68451
vt 0.4889 0.62718
vt 0.48626 0.63355
vt 0.47922 0.63142
vt 0.48241 0.62371
vt 0.54717 0.62144
vt 0.54229 0.61656
vt 0.54696 0.61087
vt 0.55286 0.61677
vt 0.53655 0.61272
vt 0.54002 0.60623
vt 0.53655 0.67483
vt 0.54229 0.671
vt 0.54696 0.67668
vt 0.54002 0.68132
vt 0.48626 0.654
vt 0.4889 0.66037
vt 0.48241 0.66384
vt 0.47922 0.65613
vt 0.5165 0.60873
vt 0.51578 0.60141
vt 0.55365 0.654
vt 0.56069 0.65613
vt 0.50336 0.67483
vt 0.49989 0.68132
vt 0.49274 0.62144
vt 0.48705 0.61677
vt 0.55101 0.62718
vt 0.5575 0.62371
vt 0.53018 0.67747
vt 0.53231 0.68451
vt 0.48491 0.64723
vt 0.47759 0.64795
vt 0.52341 0.60873
vt 0.52413 0.60141
vt 0.55101 0.66037
vt 0.5575 0.66384
vt 0.49762 0.671
vt 0.49295 0.67668
vt 0.49762 0.61656
vt 0.49295 0.61087
vt 0.55365 0.63355
vt 0.56069 0.63142
vt 0.52341 0.67882
vt 0.52413 0.68614
vt 0.48491 0.64032
vt 0.47759 0.6396
vt 0.53018 0.61008
vt 0.53231 0.60304
vt 0.54717 0.66611
vt 0.55286 0.67078
vt 0.49274 0.66611
vt 0.48705 0.67078
vt 0.52727 0.66789
vt 0.53183 0.666
vt 0.50397 0.6243
vt 0.50047 0.62779
vt 0.52242 0.66886
vt 0.50807 0.62155
vt 0.51748 0.66886
vt 0.51264 0.61966
vt 0.51264 0.66789
vt 0.53944 0.62779
vt 0.53594 0.6243
vt 0.51748 0.6187
vt 0.50807 0.666
vt 0.54218 0.6319
vt 0.52242 0.6187
vt 0.50397 0.66326
vt 0.54407 0.63646
vt 0.52727 0.61966
vt 0.50047 0.65976
vt 0.54503 0.64131
vt 0.53183 0.62155
vt 0.49773 0.65566
vt 0.54503 0.64625
vt 0.49584 0.65109
vt 0.54407 0.65109
vt 0.49488 0.64625
vt 0.54218 0.65566
vt 0.49488 0.64131
vt 0.53944 0.65976
vt 0.49584 0.63646
vt 0.53594 0.66326
vt 0.49773 0.6319
vt 0.51995 0.64378
vt 0.85804 0.75799
vt 0.86241 0.75767
vt 0.86241 0.99515
vt 0.85804 0.99548
vt 0.34769 0.99506
vt 0.34309 0.99506
vt 0.34309 0.76074
vt 0.34769 0.76074
vt 0.86635 0.75767
vt 0.87072 0.75799
vt 0.87072 0.99548
vt 0.86635 0.99515
vt 0.59646 0.76074
vt 0.60106 0.76074
vt 0.60106 0.99506
vt 0.59646 0.99506
vt 0.84983 0.76074
vt 0.84983 0.99506
usemtl mat1
f 225/225/11 226/226/11 227/227/11
f 227/227/11 228/228/11 225/225/11
f 229/229/12 230/230/12 231/231/12
f 231/231/12 232/232/12 229/229/12
f 233/233/13 234/234/13 235/235/13
f 235/235/13 236/236/13 233/233/13
f 228/228/14 227/227/14 237/237/14
f 237/237/14 238/238/14 228/228/14
f 227/227/14 239/239/14 240/240/14
f 240/240/14 237/237/14 227/227/14
f 234/234/15 241/241/15 242/242/15
f 242/242/15 235/235/15 234/234/15
f 230/230/12 243/243/12 244/244/12
f 244/244/12 231/231/12 230/230/12
f 243/243/12 245/245/12 246/246/12
f 246/246/12 244/244/12 243/243/12
f 241/241/15 247/247/15 248/248/15
f 248/248/15 242/242/15 241/241/15
f 239/239/14 249/249/14 250/250/14
f 250/250/14 240/240/14 239/239/14
f 251/251/16 252/252/16 253/253/16
f 253/253/16 254/254/16 251/251/16
f 255/255/12 256/256/12 257/257/12
f 257/257/12 258/258/12 255/255/12
f 259/259/12 255/255/12 258/258/12
f 258/258/12 260/260/12 259/259/12
f 237/237/14 240/240/14 261/261/14
f 261/261/14 262/262/14 237/237/14
f 238/238/14 237/237/14 262/262/14
f 262/262/14 263/263/14 238/238/14
f 264/264/12 259/259/12 260/260/12
f 260/260/12 265/265/12 264/264/12
f 263/263/14 262/262/14 234/234/14
f 234/234/14 233/233/14 263/263/14
f 262/262/14 261/261/14 241/241/14
f 241/241/14 234/234/14 262/262/14
f 261/261/14 266/266/14 247/247/14
f 247/247/14 241/241/14 261/261/14
f 244/244/12 246/246/12 256/256/12
f 256/256/12 255/255/12 244/244/12
f 231/231/12 244/244/12 255/255/12
f 255/255/12 259/259/12 231/231/12
f 232/232/12 231/231/12 259/259/12
f 259/259/12 264/264/12 232/232/12
f 267/267/14 268/268/14 269/269/14
f 269/269/14 270/270/14 267/267/14
f 271/271/15 272/272/15 273/273/15
f 273/273/15 274/274/15 271/271/15
f 272/272/17 251/251/17 254/254/17
f 254/254/17 273/273/17 272/272/17
f 275/275/18 276/276/18 277/277/18
f 277/277/18 278/278/18 275/275/18
f 279/279/19 280/280/19 276/276/19
f 276/276/19 275/275/19 279/279/19
f 281/281/20 282/282/20 280/280/20
f 280/280/20 279/279/20 281/281/20
f 283/283/21 284/284/21 282/282/21
f 282/282/21 281/281/21 283/283/21
f 285/285/22 286/286/22 284/284/22
f 284/284/22 283/283/22 285/285/22
f 287/287/23 288/288/23 286/286/23
f 286/286/23 285/285/23 287/287/23
f 289/289/24 290/290/24 288/288/24
f 288/288/24 287/287/24 289/289/24
f 291/291/25 292/292/25 290/290/25
f 290/290/25 289/289/25 291/291/25
f 293/293/26 294/294/26 292/292/26
f 292/292/26 291/291/26 293/293/26
f 295/295/27 296/296/27 294/294/27
f 294/294/27 293/293/27 295/295/27
f 297/297/28 298/298/28 296/296/28
f 296/296/28 295/295/28 297/297/28
f 299/299/29 300/300/29 298/298/29
f 298/298/29 297/297/29 299/299/29
f 301/301/30 302/302/30 300/300/30
f 300/300/30 299/299/30 301/301/30
f 303/303/31 304/304/31 302/302/31
f 302/302/31 301/301/31 303/303/31
f 305/305/32 306/306/32 304/304/32
f 304/304/32 303/303/32 305/305/32
f 307/307/33 308/308/33 306/306/33
f 306/306/33 305/305/33 307/307/33
f 309/309/34 310/310/34 308/308/34
f 308/308/34 307/307/34 309/309/34
f 311/311/35 312/312/35 310/310/35
f 310/310/35 309/309/35 311/311/35
f 313/313/36 314/314/36 312/312/36
f 312/312/36 311/311/36 313/313/36
f 315/315/37 316/316/37 314/314/37
f 314/314/37 313/313/37 315/315/37
f 317/317/38 318/318/38 316/316/38
f 316/316/38 315/315/38 317/317/38
f 319/319/39 320/320/39 318/318/39
f 318/318/39 317/317/39 319/319/39
f 321/321/40 322/322/40 320/320/40
f 320/320/40 319/319/40 321/321/40
f 323/323/41 324/324/41 322/322/41
f 322/322/41 321/321/41 323/323/41
f 325/325/42 326/326/42 324/324/42
f 324/324/42 323/323/42 325/325/42
f 327/327/43 328/328/43 326/326/43
f 326/326/43 325/325/43 327/327/43
f 329/329/44 330/330/44 328/328/44
f 328/328/44 327/327/44 329/329/44
f 331/331/45 332/332/45 330/330/45
f 330/330/45 329/329/45 331/331/45
f 333/333/46 334/334/46 332/332/46
f 332/332/46 331/331/46 333/333/46
f 335/335/47 336/336/47 334/334/47
f 334/334/47 333/333/47 335/335/47
f 337/337/48 338/338/48 336/336/48
f 336/336/48 335/335/48 337/337/48
f 339/339/49 340/340/49 338/338/49
f 338/338/49 337/337/49 339/339/49
f 341/341/50 342/342/50 343/343/50
f 343/343/50 344/344/50 341/341/50
f 345/345/51 346/346/51 342/342/51
f 342/342/51 341/341/51 345/345/51
f 347/347/52 348/348/52 346/346/52
f 346/346/52 345/345/52 347/347/52
f 349/349/53 350/350/53 348/348/53
f 348/348/53 347/347/53 349/349/53
f 351/351/54 352/352/54 350/350/54
f 350/350/54 349/349/54 351/351/54
f 353/353/55 354/354/55 352/352/55
f 352/352/55 351/351/55 353/353/55
f 355/355/56 356/356/56 354/354/56
f 354/354/56 353/353/56 355/355/56
f 357/357/57 358/358/57 356/356/57
f 356/356/57 355/355/57 357/357/57
f 359/359/58 360/360/58 358/358/58
f 358/358/58 357/357/58 359/359/58
f 361/361/59 362/362/59 360/360/59
f 360/360/59 359/359/59 361/361/59
f 363/363/60 364/364/60 362/362/60
f 362/362/60 361/361/60 363/363/60
f 365/365/61 366/366/61 364/364/61
f 364/364/61 363/363/61 365/365/61
f 367/367/62 368/368/62 366/366/62
f 366/366/62 365/365/62 367/367/62
f 369/369/63 370/370/63 368/368/63
f 368/368/63 367/367/63 369/369/63
f 371/371/64 372/372/64 370/370/64
f 370/370/64 369/369/64 371/371/64
f 373/373/65 374/374/65 372/372/65
f 372/372/65 371/371/65 373/373/65
f 375/375/66 376/376/66 374/374/66
f 374/374/66 373/373/66 375/375/66
f 377/377/67 378/378/67 376/376/67
f 376/376/67 375/375/67 377/377/67
f 379/379/68 380/380/68 378/378/68
f 378/378/68 377/377/68 379/379/68
f 381/381/69 382/382/69 380/380/69
f 380/380/69 379/379/69 381/381/69
f 383/383/70 384/384/70 382/382/70
f 382/382/70 381/381/70 383/383/70
f 385/385/71 386/386/71 384/384/71
f 384/384/71 383/383/71 385/385/71
f 387/387/72 388/388/72 386/386/72
f 386/386/72 385/385/72 387/387/72
f 389/389/73 390/390/73 388/388/73
f 388/388/73 387/387/73 389/389/73
f 391/391/74 392/392/74 390/390/74
f 390/390/74 389/389/74 391/391/74
f 393/393/75 394/394/75 392/392/75
f 392/392/75 391/391/75 393/393/75
f 395/395/76 396/396/76 394/394/76
f 394/394/76 393/393/76 395/395/76
f 397/397/77 398/398/77 396/396/77
f 396/396/77 395/395/77 397/397/77
f 399/399/78 400/400/78 398/398/78
f 398/398/78 397/397/78 399/399/78
f 401/401/79 402/402/79 400/400/79
f 400/400/79 399/399/79 401/401/79
f 403/403/80 404/404/80 402/402/80
f 402/402/80 401/401/80 403/403/80
f 405/405/81 406/406/81 404/404/81
f 404/404/81 403/403/81 405/405/81
f 407/407/82 408/408/82 409/409/82
f 409/409/82 410/410/82 407/407/82
f 411/411/83 412/412/83 413/413/83
f 413/413/83 414/414/83 411/411/83
f 415/415/84 416/416/84 417/417/84
f 417/417/84 418/418/84 415/415/84
f 419/419/85 420/420/85 421/421/85
f 421/421/85 422/422/85 419/419/85
f 423/423/86 424/424/86 425/425/86
f 425/425/86 426/426/86 423/423/86
f 424/424/87 427/427/87 428/428/87
f 428/428/87 425/425/87 424/424/87
f 429/429/88 430/430/88 431/431/88
f 431/431/88 432/432/88 429/429/88
f 433/433/89 434/434/89 435/435/89
f 435/435/89 436/436/89 433/433/89
f 437/437/90 407/407/90 410/410/90
f 410/410/90 438/438/90 437/437/90
f 439/439/91 411/411/91 414/414/91
f 414/414/91 440/440/91 439/439/91
f 441/441/92 415/415/92 418/418/92
f 418/418/92 442/442/92 441/441/92
f 443/443/93 419/419/93 422/422/93
f 422/422/93 444/444/93 443/443/93
f 445/445/94 423/423/94 426/426/94
f 426/426/94 446/446/94 445/445/94
f 447/447/95 429/429/95 432/432/95
f 432/432/95 448/448/95 447/447/95
f 449/449/96 433/433/96 436/436/96
f 436/436/96 450/450/96 449/449/96
f 451/451/97 437/437/97 438/438/97
f 438/438/97 452/452/97 451/451/97
f 453/453/98 439/439/98 440/440/98
f 440/440/98 454/454/98 453/453/98
f 455/455/99 441/441/99 442/442/99
f 442/442/99 456/456/99 455/455/99
f 457/457/100 443/443/100 444/444/100
f 444/444/100 458/458/100 457/457/100
f 459/459/101 445/445/101 446/446/101
f 446/446/101 460/460/101 459/459/101
f 461/461/102 447/447/102 448/448/102
f 448/448/102 462/462/102 461/461/102
f 463/463/103 449/449/103 450/450/103
f 450/450/103 464/464/103 463/463/103
f 465/465/104 451/451/104 452/452/104
f 452/452/104 466/466/104 465/465/104
f 467/467/105 453/453/105 454/454/105
f 454/454/105 468/468/105 467/467/105
f 469/469/106 455/455/106 456/456/106
f 456/456/106 470/470/106 469/469/106
f 408/408/107 457/457/107 458/458/107
f 458/458/107 409/409/107 408/408/107
f 412/412/108 459/459/108 460/460/108
f 460/460/108 413/413/108 412/412/108
f 416/416/109 461/461/109 462/462/109
f 462/462/109 417/417/109 416/416/109
f 420/420/110 463/463/110 464/464/110
f 464/464/110 421/421/110 420/420/110
f 427/427/111 465/465/111 466/466/111
f 466/466/111 428/428/111 427/427/111
f 430/430/112 467/467/112 468/468/112
f 468/468/112 431/431/112 430/430/112
f 434/434/113 469/469/113 470/470/113
f 470/470/113 435/435/113 434/434/113
f 471/471/114 472/472/114 429/429/114
f 429/429/114 447/447/114 471/471/114
f 473/473/115 474/474/115 443/443/115
f 443/443/115 457/457/115 473/473/115
f 475/475/116 471/471/116 447/447/116
f 447/447/116 461/461/116 475/475/116
f 476/476/117 473/473/117 457/457/117
f 457/457/117 408/408/117 476/476/117
f 477/477/118 475/475/118 461/461/118
f 461/461/118 416/416/118 477/477/118
f 478/478/119 476/476/119 408/408/119
f 408/408/119 407/407/119 478/478/119
f 479/479/120 477/477/120 416/416/120
f 416/416/120 415/415/120 479/479/120
f 480/480/121 481/481/121 424/424/121
f 424/424/121 423/423/121 480/480/121
f 482/482/122 478/478/122 407/407/122
f 407/407/122 437/437/122 482/482/122
f 483/483/123 479/479/123 415/415/123
f 415/415/123 441/441/123 483/483/123
f 484/484/124 480/480/124 423/423/124
f 423/423/124 445/445/124 484/484/124
f 485/485/125 482/482/125 437/437/125
f 437/437/125 451/451/125 485/485/125
f 486/486/126 483/483/126 441/441/126
f 441/441/126 455/455/126 486/486/126
f 487/487/127 484/484/127 445/445/127
f 445/445/127 459/459/127 487/487/127
f 488/488/128 485/485/128 451/451/128
f 451/451/128 465/465/128 488/488/128
f 489/489/129 486/486/129 455/455/129
f 455/455/129 469/469/129 489/489/129
f 490/490/130 487/487/130 459/459/130
f 459/459/130 412/412/130 490/490/130
f 491/491/131 488/488/131 465/465/131
f 465/465/131 427/427/131 491/491/131
f 492/492/132 489/489/132 469/469/132
f 469/469/132 434/434/132 492/492/132
f 493/493/133 490/490/133 412/412/133
f 412/412/133 411/411/133 493/493/133
f 481/481/134 491/491/134 427/427/134
f 427/427/134 424/424/134 481/481/134
f 494/494/135 492/492/135 434/434/135
f 434/434/135 433/433/135 494/494/135
f 495/495/136 493/493/136 411/411/136
f 411/411/136 439/439/136 495/495/136
f 496/496/137 494/494/137 433/433/137
f 433/433/137 449/449/137 496/496/137
f 497/497/138 495/495/138 439/439/138
f 439/439/138 453/453/138 497/497/138
f 498/498/139 496/496/139 449/449/139
f 449/449/139 463/463/139 498/498/139
f 499/499/140 497/497/140 453/453/140
f 453/453/140 467/467/140 499/499/140
f 500/500/141 498/498/141 463/463/141
f 463/463/141 420/420/141 500/500/141
f 501/501/142 499/499/142 467/467/142
f 467/467/142 430/430/142 501/501/142
f 502/502/143 500/500/143 420/420/143
f 420/420/143 419/419/143 502/502/143
f 472/472/144 501/501/144 430/430/144
f 430/430/144 429/429/144 472/472/144
f 474/474/145 502/502/145 419/419/145
f 419/419/145 443/443/145 474/474/145
f 477/477/146 479/479/146 503/503/146
f 481/481/147 480/480/147 503/503/147
f 478/478/148 482/482/148 503/503/148
f 479/479/149 483/483/149 503/503/149
f 480/480/150 484/484/150 503/503/150
f 482/482/151 485/485/151 503/503/151
f 483/483/152 486/486/152 503/503/152
f 484/484/153 487/487/153 503/503/153
f 485/485/154 488/488/154 503/503/154
f 486/486/152 489/489/152 503/503/152
f 487/487/151 490/490/151 503/503/151
f 488/488/150 491/491/150 503/503/150
f 489/489/149 492/492/149 503/503/149
f 490/490/148 493/493/148 503/503/148
f 491/491/147 481/481/147 503/503/147
f 492/492/146 494/494/146 503/503/146
f 493/493/155 495/495/155 503/503/155
f 494/494/156 496/496/156 503/503/156
f 495/495/157 497/497/157 503/503/157
f 496/496/158 498/498/158 503/503/158
f 497/497/159 499/499/159 503/503/159
f 498/498/160 500/500/160 503/503/160
f 499/499/161 501/501/161 503/503/161
f 500/500/162 502/502/162 503/503/162
f 501/501/163 472/472/163 503/503/163
f 502/502/164 474/474/164 503/503/164
f 472/472/165 471/471/165 503/503/165
f 474/474/166 473/473/166 503/503/166
f 471/471/167 475/475/167 503/503/167
f 473/473/168 476/476/168 503/503/168
f 475/475/169 477/477/169 503/503/169
f 476/476/170 478/478/170 503/503/170
f 504/504/171 505/505/171 506/506/171
f 506/506/171 507/507/171 504/504/171
f 508/508/12 509/509/12 510/510/12
f 510/510/12 511/511/12 508/508/12
f 512/512/172 513/513/172 514/514/172
f 514/514/172 515/515/172 512/512/172
f 516/516/14 517/517/14 518/518/14
f 518/518/14 519/519/14 516/516/14
f 518/518/173 517/517/173 520/520/173
f 520/520/173 521/521/173 518/518/173
f 516/516/174 519/519/174 508/508/174
f 508/508/174 511/511/174 516/516/174
# Vertices: 297, normals: 164, texture coordinates: 297, faces: 350

